<mxfile host="65bd71144e">
    <diagram id="Z8LOxmhDQHYhRFIqY7z4" name="Page-1">
        <mxGraphModel dx="1666" dy="1077" grid="1" gridSize="10" guides="1" tooltips="1" connect="1" arrows="1" fold="1" page="1" pageScale="1" pageWidth="1169" pageHeight="1654" math="0" shadow="0">
            <root>
                <mxCell id="0"/>
                <mxCell id="1" parent="0"/>
                <mxCell id="129" style="edgeStyle=none;html=1;exitX=1;exitY=0.5;exitDx=0;exitDy=0;strokeColor=#C2C2C2;entryX=0;entryY=0.5;entryDx=0;entryDy=0;" edge="1" parent="1" source="8" target="99">
                    <mxGeometry relative="1" as="geometry">
                        <mxPoint x="117" y="270" as="targetPoint"/>
                    </mxGeometry>
                </mxCell>
                <mxCell id="8" value="Laptop" style="strokeColor=#dddddd;shadow=1;strokeWidth=1;rounded=1;absoluteArcSize=1;arcSize=2;labelPosition=center;verticalLabelPosition=middle;align=center;verticalAlign=bottom;spacingLeft=0;fontColor=#999999;fontSize=12;whiteSpace=wrap;spacingBottom=2;" vertex="1" parent="1">
                    <mxGeometry x="7" y="130" width="70" height="85" as="geometry"/>
                </mxCell>
                <mxCell id="9" value="" style="sketch=0;dashed=0;connectable=0;html=1;fillColor=#757575;strokeColor=none;shape=mxgraph.gcp2.laptop;part=1;" vertex="1" parent="8">
                    <mxGeometry x="0.5" width="50" height="33" relative="1" as="geometry">
                        <mxPoint x="-25" y="18.5" as="offset"/>
                    </mxGeometry>
                </mxCell>
                <mxCell id="10" value="Users" style="strokeColor=#dddddd;shadow=1;strokeWidth=1;rounded=1;absoluteArcSize=1;arcSize=2;labelPosition=center;verticalLabelPosition=middle;align=center;verticalAlign=bottom;spacingLeft=0;fontColor=#999999;fontSize=12;whiteSpace=wrap;spacingBottom=2;" vertex="1" parent="1">
                    <mxGeometry x="7" y="10" width="70" height="85" as="geometry"/>
                </mxCell>
                <mxCell id="11" value="" style="sketch=0;dashed=0;connectable=0;html=1;fillColor=#757575;strokeColor=none;shape=mxgraph.gcp2.users;part=1;" vertex="1" parent="10">
                    <mxGeometry x="0.5" width="50" height="31.5" relative="1" as="geometry">
                        <mxPoint x="-25" y="19.25" as="offset"/>
                    </mxGeometry>
                </mxCell>
                <mxCell id="37" value="&lt;b&gt;Google&amp;nbsp;&lt;/b&gt;Cloud Platform" style="fillColor=#F6F6F6;strokeColor=none;shadow=0;gradientColor=none;fontSize=14;align=left;spacing=10;fontColor=#717171;9E9E9E;verticalAlign=top;spacingTop=-4;fontStyle=0;spacingLeft=40;html=1;" vertex="1" parent="1">
                    <mxGeometry x="317" y="280" width="510" height="385" as="geometry"/>
                </mxCell>
                <mxCell id="38" value="" style="shape=mxgraph.gcp2.google_cloud_platform;fillColor=#F6F6F6;strokeColor=none;shadow=0;gradientColor=none;movable=0;resizable=0;rotatable=0;deletable=0;editable=0;connectable=0;" vertex="1" parent="37">
                    <mxGeometry width="23" height="20" relative="1" as="geometry">
                        <mxPoint x="20" y="10" as="offset"/>
                    </mxGeometry>
                </mxCell>
                <mxCell id="20" value="asia-northeast1" style="sketch=0;points=[[0,0,0],[0.25,0,0],[0.5,0,0],[0.75,0,0],[1,0,0],[1,0.25,0],[1,0.5,0],[1,0.75,0],[1,1,0],[0.75,1,0],[0.5,1,0],[0.25,1,0],[0,1,0],[0,0.75,0],[0,0.5,0],[0,0.25,0]];rounded=1;absoluteArcSize=1;arcSize=2;html=1;strokeColor=none;gradientColor=none;shadow=0;dashed=0;fontSize=12;fontColor=#9E9E9E;align=left;verticalAlign=top;spacing=10;spacingTop=-4;fillColor=#ECEFF1;movable=1;resizable=1;rotatable=1;deletable=1;editable=1;connectable=1;" vertex="1" parent="37">
                    <mxGeometry width="470" height="330" relative="1" as="geometry">
                        <mxPoint x="20" y="40" as="offset"/>
                    </mxGeometry>
                </mxCell>
                <mxCell id="4" value="" style="shadow=1;strokeWidth=1;rounded=1;absoluteArcSize=1;arcSize=2;fillColor=#FFFFFF;labelBackgroundColor=none;fontColor=#333333;strokeColor=#dddddd;movable=1;resizable=1;rotatable=1;deletable=1;editable=1;connectable=1;" vertex="1" parent="37">
                    <mxGeometry x="42.46153846153846" y="190" width="138" height="60" as="geometry"/>
                </mxCell>
                <mxCell id="5" value="&lt;font color=&quot;#000000&quot;&gt;lsp&lt;/font&gt;&lt;br&gt;Cloud Run" style="editableCssRules=.*;html=1;fontColor=#999999;shape=image;verticalLabelPosition=middle;labelBackgroundColor=#ffffff;verticalAlign=middle;labelPosition=right;align=left;spacingLeft=20;part=1;points=[];imageAspect=0;image=data:image/svg+xml,PHN2ZyB4bWxucz0iaHR0cDovL3d3dy53My5vcmcvMjAwMC9zdmciIHhtbG5zOnY9Imh0dHBzOi8vdmVjdGEuaW8vbmFubyIgd2lkdGg9IjM2NS40NjQ5OTY3NzA0MjQ5MyIgaGVpZ2h0PSIzNzkuMjIyOTk0NDYzNTc3OTUiIHZpZXdCb3g9IjAgMCA5Ni42OTU5OTkxNDU1MDc4MSAxMDAuMzM1OTk4NTM1MTU2MjUiPiYjeGE7PHN0eWxlIHR5cGU9InRleHQvY3NzIj4mI3hhOwkuc3Qwe2ZpbGw6IzQyODVmNDt9JiN4YTsJLnN0MXtmaWxsOiNhZWNiZmE7fSYjeGE7PC9zdHlsZT4mI3hhOwk8cGF0aCBjbGFzcz0ic3QwIiBkPSJNMjkuNzk0IDEwMC4zMzZMNDYuOTIgNTAuMTY4aDQ5Ljc3NnpNMCA5OS42NzFsMTIuOTc2LTQ5LjUwMkgyOS4yMkwxNi44OTcgOTIuMDU0eiIvPiYjeGE7CTxwYXRoIGNsYXNzPSJzdDEiIGQ9Ik0yOS43OTQgMEw0Ni45MiA1MC4xNjhoNDkuNzc2ek0wIC42NjZsMTIuOTc2IDQ5LjUwMkgyOS4yMkwxNi44OTcgOC4yODN6Ii8+JiN4YTs8L3N2Zz4=;movable=0;resizable=0;rotatable=0;deletable=0;editable=0;connectable=0;" vertex="1" parent="4">
                    <mxGeometry width="30" height="30" relative="1" as="geometry">
                        <mxPoint x="15" y="15" as="offset"/>
                    </mxGeometry>
                </mxCell>
                <mxCell id="31" value="" style="shape=mxgraph.gcp2.doubleRect;strokeColor=#DDDDDD;shadow=1;strokeWidth=1;rounded=1;absoluteArcSize=1;arcSize=2;fillColor=#FFFFFF;fontColor=#333333;movable=1;resizable=1;rotatable=1;deletable=1;editable=1;connectable=1;" vertex="1" parent="37">
                    <mxGeometry x="42.46153846153846" y="280" width="146.4923076923077" height="68" as="geometry"/>
                </mxCell>
                <mxCell id="32" value="&lt;font color=&quot;#000000&quot;&gt;metrics&lt;/font&gt;&lt;br&gt;Cloud Run" style="editableCssRules=.*;html=1;fontColor=#999999;shape=image;verticalLabelPosition=middle;labelBackgroundColor=#ffffff;verticalAlign=middle;labelPosition=right;align=left;spacingLeft=20;part=1;points=[];imageAspect=0;image=data:image/svg+xml,PHN2ZyB4bWxucz0iaHR0cDovL3d3dy53My5vcmcvMjAwMC9zdmciIHhtbG5zOnY9Imh0dHBzOi8vdmVjdGEuaW8vbmFubyIgd2lkdGg9IjM2NS40NjQ5OTY3NzA0MjQ5MyIgaGVpZ2h0PSIzNzkuMjIyOTk0NDYzNTc3OTUiIHZpZXdCb3g9IjAgMCA5Ni42OTU5OTkxNDU1MDc4MSAxMDAuMzM1OTk4NTM1MTU2MjUiPiYjeGE7PHN0eWxlIHR5cGU9InRleHQvY3NzIj4mI3hhOwkuc3Qwe2ZpbGw6IzQyODVmNDt9JiN4YTsJLnN0MXtmaWxsOiNhZWNiZmE7fSYjeGE7PC9zdHlsZT4mI3hhOwk8cGF0aCBjbGFzcz0ic3QwIiBkPSJNMjkuNzk0IDEwMC4zMzZMNDYuOTIgNTAuMTY4aDQ5Ljc3NnpNMCA5OS42NzFsMTIuOTc2LTQ5LjUwMkgyOS4yMkwxNi44OTcgOTIuMDU0eiIvPiYjeGE7CTxwYXRoIGNsYXNzPSJzdDEiIGQ9Ik0yOS43OTQgMEw0Ni45MiA1MC4xNjhoNDkuNzc2ek0wIC42NjZsMTIuOTc2IDQ5LjUwMkgyOS4yMkwxNi44OTcgOC4yODN6Ii8+JiN4YTs8L3N2Zz4=;movable=0;resizable=0;rotatable=0;deletable=0;editable=0;connectable=0;" vertex="1" parent="31">
                    <mxGeometry width="30" height="30" relative="1" as="geometry">
                        <mxPoint x="15" y="15" as="offset"/>
                    </mxGeometry>
                </mxCell>
                <mxCell id="2" value="" style="shape=mxgraph.gcp2.doubleRect;strokeColor=#dddddd;shadow=1;strokeWidth=1;rounded=1;absoluteArcSize=1;arcSize=2;fillColor=#FFFFFF;movable=1;resizable=1;rotatable=1;deletable=1;editable=1;connectable=1;" vertex="1" parent="37">
                    <mxGeometry x="42.46153846153846" y="85" width="146.4923076923077" height="68" as="geometry"/>
                </mxCell>
                <mxCell id="3" value="&lt;font color=&quot;#000000&quot;&gt;compiler&lt;/font&gt;&lt;br&gt;Cloud Run" style="editableCssRules=.*;html=1;fontColor=#999999;shape=image;verticalLabelPosition=middle;labelBackgroundColor=#ffffff;verticalAlign=middle;labelPosition=right;align=left;spacingLeft=20;part=1;points=[];imageAspect=0;image=data:image/svg+xml,PHN2ZyB4bWxucz0iaHR0cDovL3d3dy53My5vcmcvMjAwMC9zdmciIHhtbG5zOnY9Imh0dHBzOi8vdmVjdGEuaW8vbmFubyIgd2lkdGg9IjM2NS40NjQ5OTY3NzA0MjQ5MyIgaGVpZ2h0PSIzNzkuMjIyOTk0NDYzNTc3OTUiIHZpZXdCb3g9IjAgMCA5Ni42OTU5OTkxNDU1MDc4MSAxMDAuMzM1OTk4NTM1MTU2MjUiPiYjeGE7PHN0eWxlIHR5cGU9InRleHQvY3NzIj4mI3hhOwkuc3Qwe2ZpbGw6IzQyODVmNDt9JiN4YTsJLnN0MXtmaWxsOiNhZWNiZmE7fSYjeGE7PC9zdHlsZT4mI3hhOwk8cGF0aCBjbGFzcz0ic3QwIiBkPSJNMjkuNzk0IDEwMC4zMzZMNDYuOTIgNTAuMTY4aDQ5Ljc3NnpNMCA5OS42NzFsMTIuOTc2LTQ5LjUwMkgyOS4yMkwxNi44OTcgOTIuMDU0eiIvPiYjeGE7CTxwYXRoIGNsYXNzPSJzdDEiIGQ9Ik0yOS43OTQgMEw0Ni45MiA1MC4xNjhoNDkuNzc2ek0wIC42NjZsMTIuOTc2IDQ5LjUwMkgyOS4yMkwxNi44OTcgOC4yODN6Ii8+JiN4YTs8L3N2Zz4=;movable=0;resizable=0;rotatable=0;deletable=0;editable=0;connectable=0;" vertex="1" parent="2">
                    <mxGeometry width="30" height="30" relative="1" as="geometry">
                        <mxPoint x="15" y="15" as="offset"/>
                    </mxGeometry>
                </mxCell>
                <mxCell id="26" value="" style="strokeColor=#dddddd;shadow=1;strokeWidth=1;rounded=1;absoluteArcSize=1;arcSize=2;fillColor=#FFFFFF;movable=1;resizable=1;rotatable=1;deletable=1;editable=1;connectable=1;" vertex="1" parent="37">
                    <mxGeometry x="307.84615384615387" y="284" width="127.38461538461539" height="60" as="geometry"/>
                </mxCell>
                <mxCell id="27" value="Logging" style="editableCssRules=.*;fontColor=#999999;shape=image;verticalLabelPosition=middle;labelBackgroundColor=#ffffff;verticalAlign=middle;labelPosition=right;align=left;spacingLeft=20;part=1;points=[];imageAspect=0;image=data:image/svg+xml,PHN2ZyB4bWxucz0iaHR0cDovL3d3dy53My5vcmcvMjAwMC9zdmciIHhtbG5zOnY9Imh0dHBzOi8vdmVjdGEuaW8vbmFubyIgd2lkdGg9IjIwIiBoZWlnaHQ9IjE5IiB2aWV3Qm94PSIwIDAgMjAgMTkiPiYjeGE7CTxzdHlsZSB0eXBlPSJ0ZXh0L2NzcyI+JiN4YTsJLnN0MHtmaWxsOiM0Mjg1ZjQ7fSYjeGE7CS5zdDF7ZmlsbDojNjY5ZGY2O30mI3hhOwkuc3Qye2ZpbGw6I2FlY2JmYTt9JiN4YTsJPC9zdHlsZT4mI3hhOwk8ZyBjbGFzcz0ic3QwIj4mI3hhOwkJPHBhdGggZD0iTTQgOWg0djJINHptLTIgN2g2djJIMnoiLz4mI3hhOwkJPHBhdGggZD0iTTQgNEgydjEyaDJ6Ii8+JiN4YTsJPC9nPiYjeGE7CTxwYXRoIGNsYXNzPSJzdDEiIGQ9Ik0yMCAxSDd2NGgxM3ptMCA3SDd2NGgxM3ptMCA3SDd2NGgxM3oiLz4mI3hhOwk8cGF0aCBjbGFzcz0ic3QyIiBkPSJNNiAwSDB2Nmg2eiIvPiYjeGE7PC9zdmc+;movable=0;resizable=0;rotatable=0;deletable=0;editable=0;connectable=0;" vertex="1" parent="26">
                    <mxGeometry width="30" height="28" relative="1" as="geometry">
                        <mxPoint x="15" y="16" as="offset"/>
                    </mxGeometry>
                </mxCell>
                <mxCell id="28" value="" style="strokeColor=#dddddd;shadow=1;strokeWidth=1;rounded=1;absoluteArcSize=1;arcSize=2;fillColor=#FFFFFF;movable=1;resizable=1;rotatable=1;deletable=1;editable=1;connectable=1;" vertex="1" parent="37">
                    <mxGeometry x="307.84615384615387" y="190" width="138" height="60" as="geometry"/>
                </mxCell>
                <mxCell id="29" value="Monitoring" style="editableCssRules=.*;fontColor=#999999;shape=image;verticalLabelPosition=middle;labelBackgroundColor=#ffffff;verticalAlign=middle;labelPosition=right;align=left;spacingLeft=20;part=1;points=[];imageAspect=0;image=data:image/svg+xml,PHN2ZyB4bWxucz0iaHR0cDovL3d3dy53My5vcmcvMjAwMC9zdmciIHhtbG5zOnY9Imh0dHBzOi8vdmVjdGEuaW8vbmFubyIgd2lkdGg9IjIwIiBoZWlnaHQ9IjEzLjUyOTk5OTczMjk3MTE5MSIgdmlld0JveD0iLTIuOTMyMDk3ODk3ODEyMDE0ZS05IC01LjI1ODAxNTA0MTgzNzk1NmUtMTUgMjAgMTMuNTI5OTk5NzMyOTcxMTkxIj4mI3hhOwk8c3R5bGUgdHlwZT0idGV4dC9jc3MiPiYjeGE7CS5zdDB7ZmlsbDojNDI4NWY0O30mI3hhOwkuc3Qxe2ZpbGw6IzY2OWRmNjt9JiN4YTsJPC9zdHlsZT4mI3hhOwk8cGF0aCBjbGFzcz0ic3QxIiBkPSJNOC44MyAxMC41OGgyLjMzdjIuNjRIOC44M3oiLz4mI3hhOwk8cGF0aCBjbGFzcz0ic3QwIiBkPSJNMTYuNDggOC42MWEuNTYuNTYgMCAwIDEtLjQtLjE3TDEyIDQuMjEgOS4yNiA3LjFhLjU3LjU3IDAgMCAxLS43Ni4wNUw2LjQyIDUuNDdsLTIuMiAyLjkyYS41Ni41NiAwIDAgMS0uNDUuMjJIMHYxLjcxYS43NS43NSAwIDAgMCAuNzQuNzVoMTguNTJhLjc1Ljc1IDAgMCAwIC43NC0uNzVWOC42MXoiLz4mI3hhOwk8cGF0aCBjbGFzcz0ic3QxIiBkPSJNMy41IDcuNWwyLjM4LTMuMTZhLjU1LjU1IDAgMCAxIC4zNy0uMjIuNjMuNjMgMCAwIDEgLjQyLjEybDIuMTIgMS43MiAyLjgtMi45NGEuNTQuNTQgMCAwIDEgLjQtLjE3aDBhLjU0LjU0IDAgMCAxIC40LjE3bDQuMzMgNC40OEgyMFYuNzRhLjc0Ljc0IDAgMCAwLS43NC0uNzRILjc0QS43NC43NCAwIDAgMCAwIC43NHY2LjgxeiIvPiYjeGE7CTxyZWN0IGNsYXNzPSJzdDAiIHg9IjYuNjciIHk9IjEyLjkyIiB3aWR0aD0iNi42NyIgaGVpZ2h0PSIuNjEiIHJ4PSIuMyIvPiYjeGE7PC9zdmc+;movable=0;resizable=0;rotatable=0;deletable=0;editable=0;connectable=0;" vertex="1" parent="28">
                    <mxGeometry width="30" height="21" relative="1" as="geometry">
                        <mxPoint x="15" y="19" as="offset"/>
                    </mxGeometry>
                </mxCell>
                <mxCell id="65" value="" style="edgeStyle=orthogonalEdgeStyle;fontSize=12;html=1;endArrow=blockThin;endFill=1;rounded=0;strokeWidth=2;endSize=4;startSize=4;dashed=0;strokeColor=#787878;entryX=0;entryY=0.5;entryDx=0;entryDy=0;exitX=1;exitY=0.75;exitDx=0;exitDy=0;movable=1;resizable=1;rotatable=1;deletable=1;editable=1;connectable=1;" edge="1" parent="37" source="4" target="26">
                    <mxGeometry width="100" relative="1" as="geometry">
                        <mxPoint x="147.50769230769228" y="145" as="sourcePoint"/>
                        <mxPoint x="235.38461538461536" y="285" as="targetPoint"/>
                        <Array as="points">
                            <mxPoint x="210" y="235"/>
                            <mxPoint x="210" y="314"/>
                        </Array>
                    </mxGeometry>
                </mxCell>
                <mxCell id="35" value="" style="strokeColor=#dddddd;shadow=1;strokeWidth=1;rounded=1;absoluteArcSize=1;arcSize=2;fillColor=#FFFFFF;movable=1;resizable=1;rotatable=1;deletable=1;editable=1;connectable=1;" vertex="1" parent="37">
                    <mxGeometry x="307.84615384615387" y="89" width="138" height="60" as="geometry"/>
                </mxCell>
                <mxCell id="36" value="Artifact&#10;Registry" style="editableCssRules=.*;fontColor=#999999;shape=image;verticalLabelPosition=middle;labelBackgroundColor=#ffffff;verticalAlign=middle;labelPosition=right;align=left;spacingLeft=20;part=1;points=[];imageAspect=0;image=data:image/svg+xml,PHN2ZyB4bWxucz0iaHR0cDovL3d3dy53My5vcmcvMjAwMC9zdmciIHhtbG5zOnY9Imh0dHBzOi8vdmVjdGEuaW8vbmFubyIgd2lkdGg9IjIxLjk5OTAwMDU0OTMxNjQwNiIgaGVpZ2h0PSIyMC4zOTM5OTkwOTk3MzE0NDUiIHZpZXdCb3g9IjAgMCAyMS45OTkwMDA1NDkzMTY0MDYgMjAuMzkzOTk5MDk5NzMxNDQ1Ij4mI3hhOwk8c3R5bGUgdHlwZT0idGV4dC9jc3MiPiYjeGE7CS5zdDB7ZmlsbDojNDI4NWY0O2ZpbGwtcnVsZTpldmVub2RkfSYjeGE7CTwvc3R5bGU+JiN4YTsJPHBhdGggY2xhc3M9InN0MCIgZD0iTTUgMHYyLjQ1OEwxLjk5OSA0LjE5N3YxMi4wMUw1IDE3LjkzOHYyLjQ1NmwtNS0yLjg4N1YyLjg4NnptMTIgMGw0Ljk5OSAyLjg4NnYxNC42MjFMMTcgMjAuMzk0di0yLjQ1NmwzLTEuNzMxVjQuMTk3bC0zLTEuNzM5em0tNi4wMTYgNi42NzNsMi45NDctMS42NDYtMi45NDctMS42NDYtMi45NDcgMS42NDZ6bTMuMjY4LTEuMDk2bC0yLjg3MSAxLjY3OHYzLjI4N2wyLjg3MS0xLjY3NnpNNy43NzMgOC44NjZsMi44NzEgMS42NzRWNy4yNTZMNy43NzMgNS41Nzd6bS0uMjEyIDMuODc4bDIuODItMS42NDYtMi44Mi0xLjY0Ni0yLjgyIDEuNjQ2em0zLjEzMi0xLjA5OGwtMi44NzEgMS42Nzh2My4yODdsMi44NzEtMS42NzZ6bS02LjI2NCAzLjI4OUw3LjMgMTYuNjA5di0zLjI4NWwtMi44NzEtMS42Nzl6bTEwLjAyOS0yLjE5MWwyLjgyLTEuNjQ2LTIuODItMS42NDYtMi44MiAxLjY0NnptMy4xMzItMS4wOThsLTIuODcxIDEuNjc4djMuMjg3bDIuODcxLTEuNjc2em0tNi4yNjQgMy4yODlsMi44NzEgMS42NzR2LTMuMjg1bC0yLjg3MS0xLjY3OXoiLz4mI3hhOzwvc3ZnPg==;movable=0;resizable=0;rotatable=0;deletable=0;editable=0;connectable=0;" vertex="1" parent="35">
                    <mxGeometry width="30" height="27" relative="1" as="geometry">
                        <mxPoint x="15" y="16" as="offset"/>
                    </mxGeometry>
                </mxCell>
                <mxCell id="66" value="" style="edgeStyle=orthogonalEdgeStyle;fontSize=12;html=1;endArrow=blockThin;endFill=1;rounded=0;strokeWidth=2;endSize=4;startSize=4;dashed=0;strokeColor=#787878;exitX=1;exitY=0.75;exitDx=0;exitDy=0;entryX=0;entryY=0.5;entryDx=0;entryDy=0;movable=1;resizable=1;rotatable=1;deletable=1;editable=1;connectable=1;" edge="1" parent="37" source="31" target="26">
                    <mxGeometry width="100" relative="1" as="geometry">
                        <mxPoint x="156.92307692307693" y="-215" as="sourcePoint"/>
                        <mxPoint x="243.23076923076923" y="-160" as="targetPoint"/>
                        <Array as="points">
                            <mxPoint x="210" y="331"/>
                            <mxPoint x="210" y="314"/>
                        </Array>
                    </mxGeometry>
                </mxCell>
                <mxCell id="67" value="" style="edgeStyle=orthogonalEdgeStyle;fontSize=12;html=1;endArrow=blockThin;endFill=1;rounded=0;strokeWidth=2;endSize=4;startSize=4;dashed=0;strokeColor=#C2C2C2;entryX=0.5;entryY=0;entryDx=0;entryDy=0;exitX=1;exitY=0.5;exitDx=0;exitDy=0;movable=1;resizable=1;rotatable=1;deletable=1;editable=1;connectable=1;" edge="1" parent="37" source="35" target="2">
                    <mxGeometry width="100" relative="1" as="geometry">
                        <mxPoint x="196.15384615384613" y="220" as="sourcePoint"/>
                        <mxPoint x="274.6153846153846" y="220" as="targetPoint"/>
                        <Array as="points">
                            <mxPoint x="480" y="120"/>
                            <mxPoint x="480" y="70"/>
                            <mxPoint x="116" y="70"/>
                            <mxPoint x="116" y="85"/>
                        </Array>
                    </mxGeometry>
                </mxCell>
                <mxCell id="69" value="" style="edgeStyle=orthogonalEdgeStyle;fontSize=12;html=1;endArrow=blockThin;endFill=1;rounded=0;strokeWidth=2;endSize=4;startSize=4;dashed=0;strokeColor=#C2C2C2;entryX=0.5;entryY=0;entryDx=0;entryDy=0;exitX=1;exitY=0.5;exitDx=0;exitDy=0;movable=1;resizable=1;rotatable=1;deletable=1;editable=1;connectable=1;" edge="1" parent="37" source="35" target="31">
                    <mxGeometry width="100" relative="1" as="geometry">
                        <mxPoint x="333.4615384615384" y="409.98" as="sourcePoint"/>
                        <mxPoint x="78.46153846153847" y="279.98" as="targetPoint"/>
                        <Array as="points">
                            <mxPoint x="480" y="120"/>
                            <mxPoint x="480" y="260"/>
                            <mxPoint x="116" y="260"/>
                        </Array>
                    </mxGeometry>
                </mxCell>
                <mxCell id="68" value="" style="edgeStyle=orthogonalEdgeStyle;fontSize=12;html=1;endArrow=blockThin;endFill=1;rounded=0;strokeWidth=2;endSize=4;startSize=4;dashed=0;strokeColor=#C2C2C2;entryX=0.5;entryY=0;entryDx=0;entryDy=0;exitX=1;exitY=0.5;exitDx=0;exitDy=0;movable=1;resizable=1;rotatable=1;deletable=1;editable=1;connectable=1;" edge="1" parent="37" source="35" target="4">
                    <mxGeometry width="100" relative="1" as="geometry">
                        <mxPoint x="337.38461538461536" y="320" as="sourcePoint"/>
                        <mxPoint x="93.36923076923077" y="95" as="targetPoint"/>
                        <Array as="points">
                            <mxPoint x="480" y="119"/>
                            <mxPoint x="480" y="170"/>
                            <mxPoint x="111" y="170"/>
                        </Array>
                    </mxGeometry>
                </mxCell>
                <mxCell id="95" value="" style="edgeStyle=orthogonalEdgeStyle;fontSize=12;html=1;endArrow=blockThin;endFill=1;rounded=0;strokeWidth=2;endSize=4;startSize=4;dashed=0;strokeColor=#787878;exitX=1;exitY=0.75;exitDx=0;exitDy=0;movable=1;resizable=1;rotatable=1;deletable=1;editable=1;connectable=1;entryX=0;entryY=0.5;entryDx=0;entryDy=0;" edge="1" parent="37" source="2" target="26">
                    <mxGeometry width="100" relative="1" as="geometry">
                        <mxPoint x="198.95384615384614" y="340.9999999999998" as="sourcePoint"/>
                        <mxPoint x="317.84615384615404" y="219.99999999999977" as="targetPoint"/>
                        <Array as="points">
                            <mxPoint x="210" y="136"/>
                            <mxPoint x="210" y="314"/>
                        </Array>
                    </mxGeometry>
                </mxCell>
                <mxCell id="94" value="" style="edgeStyle=orthogonalEdgeStyle;fontSize=12;html=1;endArrow=blockThin;endFill=1;rounded=0;strokeWidth=2;endSize=4;startSize=4;dashed=0;strokeColor=#9E9E9E;exitX=1;exitY=0.25;exitDx=0;exitDy=0;entryX=0;entryY=0.5;entryDx=0;entryDy=0;movable=1;resizable=1;rotatable=1;deletable=1;editable=1;connectable=1;" edge="1" parent="37" source="2" target="28">
                    <mxGeometry width="100" relative="1" as="geometry">
                        <mxPoint x="198.95384615384614" y="146" as="sourcePoint"/>
                        <mxPoint x="317.8461538461538" y="129" as="targetPoint"/>
                        <Array as="points">
                            <mxPoint x="250" y="102"/>
                            <mxPoint x="250" y="220"/>
                        </Array>
                    </mxGeometry>
                </mxCell>
                <mxCell id="96" value="" style="edgeStyle=orthogonalEdgeStyle;fontSize=12;html=1;endArrow=blockThin;endFill=1;rounded=0;strokeWidth=2;endSize=4;startSize=4;dashed=0;strokeColor=#9E9E9E;exitX=1;exitY=0.25;exitDx=0;exitDy=0;entryX=0;entryY=0.5;entryDx=0;entryDy=0;movable=1;resizable=1;rotatable=1;deletable=1;editable=1;connectable=1;" edge="1" parent="37" source="4" target="28">
                    <mxGeometry width="100" relative="1" as="geometry">
                        <mxPoint x="188.95384615384614" y="217" as="sourcePoint"/>
                        <mxPoint x="307.8461538461538" y="200" as="targetPoint"/>
                        <Array as="points">
                            <mxPoint x="250" y="205"/>
                            <mxPoint x="250" y="220"/>
                        </Array>
                    </mxGeometry>
                </mxCell>
                <mxCell id="97" value="" style="edgeStyle=orthogonalEdgeStyle;fontSize=12;html=1;endArrow=blockThin;endFill=1;rounded=0;strokeWidth=2;endSize=4;startSize=4;dashed=0;strokeColor=#9E9E9E;exitX=1;exitY=0.25;exitDx=0;exitDy=0;entryX=0;entryY=0.5;entryDx=0;entryDy=0;movable=1;resizable=1;rotatable=1;deletable=1;editable=1;connectable=1;" edge="1" parent="37" source="31" target="28">
                    <mxGeometry width="100" relative="1" as="geometry">
                        <mxPoint x="218.95384615384614" y="166" as="sourcePoint"/>
                        <mxPoint x="337.8461538461538" y="149" as="targetPoint"/>
                        <Array as="points">
                            <mxPoint x="250" y="297"/>
                            <mxPoint x="250" y="220"/>
                        </Array>
                    </mxGeometry>
                </mxCell>
                <mxCell id="130" style="edgeStyle=none;html=1;entryX=0;entryY=0.5;entryDx=0;entryDy=0;strokeColor=#C2C2C2;" edge="1" parent="1" source="99" target="2">
                    <mxGeometry relative="1" as="geometry">
                        <Array as="points">
                            <mxPoint x="247" y="400"/>
                        </Array>
                    </mxGeometry>
                </mxCell>
                <mxCell id="132" style="edgeStyle=none;html=1;exitX=0.5;exitY=1;exitDx=0;exitDy=0;entryX=0;entryY=0.5;entryDx=0;entryDy=0;strokeColor=#C2C2C2;" edge="1" parent="1" source="99" target="4">
                    <mxGeometry relative="1" as="geometry">
                        <Array as="points">
                            <mxPoint x="247" y="500"/>
                        </Array>
                    </mxGeometry>
                </mxCell>
                <mxCell id="133" style="edgeStyle=none;html=1;exitX=0.5;exitY=1;exitDx=0;exitDy=0;entryX=0;entryY=0.5;entryDx=0;entryDy=0;strokeColor=#C2C2C2;" edge="1" parent="1" source="99" target="31">
                    <mxGeometry relative="1" as="geometry">
                        <Array as="points">
                            <mxPoint x="247" y="594"/>
                        </Array>
                    </mxGeometry>
                </mxCell>
                <mxCell id="99" value="" style="fillColor=#F6F6F6;strokeColor=none;shadow=0;gradientColor=none;fontSize=14;align=left;spacing=10;fontColor=#717171;9E9E9E;verticalAlign=top;spacingTop=-4;fontStyle=0;spacingLeft=40;html=1;" vertex="1" parent="1">
                    <mxGeometry x="147" y="104.5" width="200" height="136" as="geometry"/>
                </mxCell>
                <mxCell id="101" value="" style="sketch=0;points=[[0,0,0],[0.25,0,0],[0.5,0,0],[0.75,0,0],[1,0,0],[1,0.25,0],[1,0.5,0],[1,0.75,0],[1,1,0],[0.75,1,0],[0.5,1,0],[0.25,1,0],[0,1,0],[0,0.75,0],[0,0.5,0],[0,0.25,0]];rounded=1;absoluteArcSize=1;arcSize=2;html=1;strokeColor=none;gradientColor=none;shadow=0;dashed=0;fontSize=12;fontColor=#9E9E9E;align=left;verticalAlign=top;spacing=10;spacingTop=-4;fillColor=#ECEFF1;movable=0;resizable=0;rotatable=0;deletable=0;editable=0;connectable=0;" vertex="1" parent="99">
                    <mxGeometry width="160" height="80" relative="1" as="geometry">
                        <mxPoint x="20" y="40" as="offset"/>
                    </mxGeometry>
                </mxCell>
                <mxCell id="125" value="" style="shape=image;verticalLabelPosition=bottom;labelBackgroundColor=default;verticalAlign=top;aspect=fixed;imageAspect=0;image=data:image/svg+xml,PHN2ZyB4bWxucz0iaHR0cDovL3d3dy53My5vcmcvMjAwMC9zdmciIHN0eWxlPSJ3aWR0aDoyMDRweDtoZWlnaHQ6MzBweCIgdmlld0JveD0iMCAwIDIwNCAzMCIgZmlsbD0ibm9uZSIgaGVpZ2h0PSIzMCIgd2lkdGg9IjIwNCI+PGcgY2xpcC1wYXRoPSJ1cmwoI2EpIj48cGF0aCBkPSJNNTIuNjg4IDEzLjAyOGMtLjIyIDAtLjQzNy4wMDgtLjY1NC4wMTVhLjI5Ny4yOTcgMCAwIDAtLjEwMi4wMjQuMzY1LjM2NSAwIDAgMC0uMjM2LjI1NWwtLjkzIDMuMjQ5Yy0uNDAxIDEuMzk3LS4yNTIgMi42ODcuNDIyIDMuNjM0LjYxOC44NzYgMS42NDYgMS4zOSAyLjg5NCAxLjQ1bDUuMDQ1LjMwNmMuMTUuMDA4LjI4LjA4LjM1OS4xOTlhLjQ5Mi40OTIgMCAwIDEgLjA1MS40MzQuNjQuNjQgMCAwIDEtLjU0Ny40MjZsLTUuMjQyLjMwNmMtMi44NDguMTMyLTUuOTEyIDIuNDU2LTYuOTg3IDUuMjlsLS4zNzggMWEuMjguMjggMCAwIDAgLjI0OC4zODJoMTguMDU0YS40OC40OCAwIDAgMCAuNDY0LS4zNSAxMy4xMiAxMy4xMiAwIDAgMCAuNDgtMy41NGMwLTcuMjItNS43ODktMTMuMDcyLTEyLjkzMy0xMy4wNzIiIGZpbGw9IiNGQkFENDEiLz48cGF0aCBkPSJNODUuNTE5IDE4Ljg4NmgyLjk5djguMjQ5aDUuMjE4djIuNjQ3aC04LjIwOFYxOC44ODZaTTk2LjgxOSAyNC4zNjV2LS4wMzJjMC0zLjEzIDIuNDkzLTUuNjY1IDUuODIxLTUuNjY1IDMuMzI3IDAgNS43ODkgMi41MDggNS43ODkgNS42MzN2LjAzMmMwIDMuMTI5LTIuNDkzIDUuNjY1LTUuODIxIDUuNjY1cy01Ljc5LTIuNTA1LTUuNzktNS42MzNabTguNTYyIDB2LS4wMzJjMC0xLjU3My0xLjEyMy0yLjk0Mi0yLjc3My0yLjk0Mi0xLjY1IDAtMi43MjUgMS4zMzctMi43MjUgMi45MXYuMDMyYzAgMS41NzIgMS4xMjIgMi45NDIgMi43NTcgMi45NDIgMS42MzQgMCAyLjc0MS0xLjMzOCAyLjc0MS0yLjkxWk0xMTIuMDg2IDI1LjAwM1YxOC44OWgzLjAzM3Y2LjA1NWMwIDEuNTcyLjc4MyAyLjMxNyAxLjk4NSAyLjMxNyAxLjIwMSAwIDEuOTg1LS43MTcgMS45ODUtMi4yNDJ2LTYuMTM0aDMuMDMydjYuMDM5YzAgMy41MTktMS45ODUgNS4wNTYtNS4wNDkgNS4wNTZzLTQuOTktMS41NzMtNC45OS00Ljk4TTEyNi42OTQgMTguODg5aDQuMTU5YzMuODQ4IDAgNi4wODEgMi4yNDEgNi4wODEgNS4zODJ2LjAzMmMwIDMuMTQtMi4yNjUgNS40NzctNi4xNDQgNS40NzdoLTQuMDk2VjE4Ljg4NnYuMDA0Wm00LjIwMiA4LjIxNmMxLjc4OCAwIDIuOTctLjk5NSAyLjk3LTIuNzU0di0uMDMyYzAtMS43NDQtMS4xODUtMi43NTUtMi45Ny0yLjc1NWgtMS4yMTd2NS41NDFoMS4yMTdaTTE0MS4yNzcgMTguODg2aDguNjIxdjIuNjQ4aC01LjYzNnYxLjg1aDUuMDk2djIuNTA1aC01LjA5NnYzLjg5M2gtMi45ODVWMTguODg2Wk0xNTQuMDU0IDE4Ljg4NmgyLjk4OXY4LjI0OWg1LjIxOXYyLjY0N2gtOC4yMDhWMTguODg2Wk0xNzAuMDY3IDE4LjgwOWgyLjg3OGw0LjU4OSAxMC45NzFoLTMuMjAybC0uNzg4LTEuOTQ2aC00LjE1OWwtLjc2OCAxLjk0NmgtMy4xNDNsNC41ODktMTAuOTcxaC4wMDRabTIuNjE5IDYuNjc2LTEuMjAyLTMuMDk3LTEuMjE3IDMuMDk3aDIuNDE5Wk0xODEuMzgzIDE4Ljg4OWg1LjA5NmMxLjY0NyAwIDIuNzg5LjQzOCAzLjUwOSAxLjE4Mi42MzUuNjIxLjk1NCAxLjQ2NS45NTQgMi41MzZ2LjAzMmMwIDEuNjY0LS44NzkgMi43Ny0yLjIxOCAzLjM0NGwyLjU3MiAzLjc5N2gtMy40NWwtMi4xNy0zLjNoLTEuMzA4djMuM2gtMi45ODlWMTguODg2bC4wMDQuMDA0Wm00Ljk1OSA1LjIzYzEuMDE2IDAgMS42MDItLjQ5NyAxLjYwMi0xLjI5di0uMDMxYzAtLjg1Ni0uNjE0LTEuMjktMS42MTgtMS4yOWgtMS45NTR2Mi42MTZoMS45NzNsLS4wMDMtLjAwNFpNMTk1LjI1MyAxOC44ODZoOC42Njl2Mi41NjhoLTUuNzExdjEuNjQ4aDUuMTc1djIuMzg0aC01LjE3NXYxLjcyOGg1Ljc5djIuNTY4aC04Ljc0OFYxOC44ODZaTTc4Ljk3NiAyNS42NDJjLS40MTguOTU2LTEuMyAxLjYzMy0yLjQ3IDEuNjMzLTEuNjMgMC0yLjc1Ni0xLjM3LTIuNzU2LTIuOTQyVjI0LjNjMC0xLjU3MyAxLjA5NC0yLjkxIDIuNzI1LTIuOTEgMS4yMjkgMCAyLjE2Ni43NjQgMi41NjQgMS44MDdoMy4xNDdjLS41MDUtMi41OTEtMi43NTctNC41My01LjY4My00LjUzLTMuMzI0IDAtNS44MjEgMi41MzYtNS44MjEgNS42NjV2LjAzMmMwIDMuMTI5IDIuNDYxIDUuNjMzIDUuNzkgNS42MzMgMi44NDMgMCA1LjA2OC0xLjg2NCA1LjY1NS00LjM2aC0zLjE1NWwuMDA0LjAwNFoiIGZpbGw9IiMwMDAiLz48cGF0aCBkPSJtNDQuODA4IDI5LjU3OC4zMzQtMS4xNzVjLjQwMi0xLjM5Ny4yNTMtMi42ODctLjQyLTMuNjM0LS42Mi0uODc2LTEuNjQ3LTEuMzktMi44OTYtMS40NWwtMjMuNjY1LS4zMDZhLjQ2Ny40NjcgMCAwIDEtLjM3NC0uMTk5LjQ5Mi40OTIgMCAwIDEtLjA1Mi0uNDM0LjY0LjY0IDAgMCAxIC41NTItLjQyNmwyMy44ODYtLjMwNmMyLjgzNi0uMTMxIDUuOS0yLjQ1NiA2Ljk3NS01LjI5bDEuMzYyLTMuNmEuOTE0LjkxNCAwIDAgMCAuMDQtLjQ3N0M0OC45OTggNS4yNTkgNDIuNzkgMCAzNS4zNjggMGMtNi44NDIgMC0xMi42NDcgNC40NjItMTQuNzMgMTAuNjY1YTYuOTIgNi45MiAwIDAgMC00LjkxMS0xLjM3NGMtMy4yOC4zMy01LjkyIDMuMDAyLTYuMjQ2IDYuMzE4YTcuMTQ4IDcuMTQ4IDAgMCAwIC4xOCAyLjQ3MmMtNS4zNi4xNi05LjY2IDQuNTk4LTkuNjYgMTAuMDUyIDAgLjQ5My4wMzUuOTc5LjEwNiAxLjQ1M2EuNDYuNDYgMCAwIDAgLjQ1Ny40MDJoNDMuNzA0YS41Ny41NyAwIDAgMCAuNTQtLjQxOCIgZmlsbD0iI0Y2ODIxRiIvPjwvZz48ZGVmcz48Y2xpcFBhdGggaWQ9ImEiPjxwYXRoIGQ9Ik0wIDBoMjA0djMwSDB6IiBmaWxsPSIjRkZGIi8+PC9jbGlwUGF0aD48L2RlZnM+PC9zdmc+;movable=0;resizable=0;rotatable=0;deletable=0;editable=0;connectable=0;" vertex="1" parent="99">
                    <mxGeometry x="20" y="11" width="136" height="20" as="geometry"/>
                </mxCell>
                <mxCell id="30" value="" style="shape=image;verticalLabelPosition=bottom;labelBackgroundColor=default;verticalAlign=top;aspect=fixed;imageAspect=0;image=data:image/svg+xml,PHN2ZyB4bWxucz0iaHR0cDovL3d3dy53My5vcmcvMjAwMC9zdmciIHZpZXdCb3g9IjAgMCAxNzQgNjgiPjxkZWZzPjxsaW5lYXJHcmFkaWVudCB5Mj0iMTAxLjYyJSIgeTE9Ii0yLjM5JSIgeDI9IjEwLjglIiB4MT0iMTE4LjE4JSIgaWQ9ImNsb3VkZmxhcmUtcGFnZXMtbG9nby1ncmFkaWVudCI+PHN0b3Agc3RvcC1jb2xvcj0iI2ZiYjc0MyIgb2Zmc2V0PSIwJSIvPjxzdG9wIHN0b3AtY29sb3I9IiNmMjgzMzMiIG9mZnNldD0iMTAwJSIvPjxzdG9wIHN0b3AtY29sb3I9IiNlYTZiMDAiIG9mZnNldD0iMTAwJSIvPjwvbGluZWFyR3JhZGllbnQ+PC9kZWZzPjxwYXRoIGQ9Ik03NS45NCA1NFYzMGg5LjQ3YzUuNDQgMCA4LjYgMy4zNiA4LjYgOC4xMyAwIDQuOC0zLjIxIDguMDktOC43MyA4LjA5SDgxVjU0aC01LjA3ek04MSA0Mi4xNWgzLjQ1YzIuOSAwIDQuMzItMS42NCA0LjMyLTQuMDIgMC0yLjM5LTEuNDItMy45OC00LjM1LTMuOThoLTMuNDJ2OHptMTkuNDggMTIuMTljLTMuNDMgMC01Ljk4LTEuOC01Ljk4LTUuMzcgMC00LjAyIDMuMi01LjIxIDYuNzctNS41NCAzLjEyLS4zIDQuMzUtLjQ2IDQuMzUtMS42MnYtLjA3YzAtMS40Ny0uOTctMi4zMy0yLjY3LTIuMzMtMS43OSAwLTIuODYuODgtMy4yIDIuMDdsLTQuNjEtLjM3Yy42OS0zLjI4IDMuNTItNS4zNCA3Ljg0LTUuMzQgNCAwIDcuNjQgMS44IDcuNjQgNi4wOVY1NGgtNC43NHYtMi41aC0uMTRjLS44OCAxLjY4LTIuNiAyLjg0LTUuMjYgMi44NHptMS40My0zLjQ1YzIuMiAwIDMuNzUtMS40NCAzLjc1LTMuMzJ2LTEuOTFjLS42LjQtMi4zOC42NS0zLjQ3LjgtMS43Ni4yNS0yLjkyLjk0LTIuOTIgMi4zNSAwIDEuMzcgMS4xIDIuMDggMi42NCAyLjA4em0xOS4zMiAxMC4yM2MtNC44NiAwLTcuNjMtMi4xNy04LjIzLTUuMDFsNC42Mi0uNjJjLjQgMS4wOSAxLjUyIDIuMDUgMy43MiAyLjA1IDIuMTcgMCAzLjc1LS45NiAzLjc1LTMuNDN2LTMuM2gtLjJjLS42NiAxLjUtMi4yNyAyLjkzLTUuMTQgMi45My00LjA2IDAtNy4zLTIuNzktNy4zLTguNzggMC02LjEyIDMuMzQtOS4yIDcuMjktOS4yIDMgMCA0LjQ3IDEuOCA1LjE0IDMuMjZoLjE5VjM2aDQuOTZ2MTguMThjMCA0LjYtMy42NiA2Ljk0LTguOCA2Ljk0em0uMS0xMS4xM2MyLjQgMCAzLjc5LTEuODcgMy43OS01LjA1IDAtMy4xNS0xLjM2LTUuMi0zLjc5LTUuMi0yLjQ3IDAtMy43OCAyLjE0LTMuNzggNS4yIDAgMy4xIDEuMzMgNS4wNSAzLjc4IDUuMDV6bTE5LjUgNC4zNmMtNS41NCAwLTguOTMtMy41Ni04LjkzLTkuMjcgMC01LjU1IDMuNDQtOS4zMSA4LjczLTkuMzEgNC43NiAwIDguNDYgMy4wMiA4LjQ2IDkuMTR2MS4zN2gtMTIuMjVjMCAyLjcgMS41OCA0LjM1IDQuMDggNC4zNSAxLjY2IDAgMi45NS0uNzIgMy40NS0yLjFsNC42Mi4zMWMtLjcgMy4zNC0zLjcgNS41MS04LjE2IDUuNTF6bS00LTExLjE3aDcuNTdhMy41NSAzLjU1IDAgMDAtMy42OC0zLjY5IDMuOCAzLjggMCAwMC0zLjg4IDMuN3ptMjkuMTItMi4wNWwtNC41Ny4yOGMtLjI1LTEuMTYtMS4yOC0yLjEtMy4wMS0yLjEtMS41NSAwLTIuNzcuNy0yLjc2IDEuNzggMCAuODYuNjEgMS40NCAyLjI5IDEuOGwzLjI2LjY2YzMuNDkuNzEgNS4xOSAyLjI3IDUuMiA0Ljg3LS4wMSAzLjU1LTMuMzUgNS45My04LjAyIDUuOTMtNC43NyAwLTcuNy0yLjEyLTguMTYtNS41Nmw0LjktLjI2Yy4zMSAxLjQ2IDEuNSAyLjIyIDMuMjggMi4yMiAxLjc0IDAgMi45LS43NiAyLjkyLTEuODItLjAyLS45LS43My0xLjQ4LTIuMy0xLjhsLTMuMTItLjYyYy0zLjUyLS43LTUuMjItMi40NS01LjItNS4xNC0uMDItMy40NyAzLjAyLTUuNiA3LjYyLTUuNiA0LjU1IDAgNy4yMiAyLjA1IDcuNjcgNS4zNnoiIGZpbGw9ImN1cnJlbnRDb2xvciIvPjxwYXRoIGQ9Ik04NC4xNCAxNy44NmgtMi4wMmMtLjE1LTEuMDQtLjk0LTEuNjgtMi4wMy0xLjY4LTEuNDcgMC0yLjQzIDEuMTMtMi40MyAzLjEgMCAyLjAxLjk4IDMuMDggMi40MSAzLjA4IDEuMDcgMCAxLjg2LS41OCAyLjA1LTEuNmwyLjAyLjAyYy0uMjEgMS43NC0xLjY4IDMuMzUtNC4xIDMuMzUtMi41MyAwLTQuNC0xLjc3LTQuNC00Ljg2IDAtMy4wOSAxLjktNC44NSA0LjQtNC44NSAyLjE5IDAgMy44NCAxLjI1IDQuMSAzLjQ0em0yLjgzLTMuMzFWMjRIODV2LTkuNDVoMS45N3ptNC4yMyA5LjU5Yy0yLjE2IDAtMy41LTEuNDctMy41LTMuNjYgMC0yLjIgMS4zNC0zLjY2IDMuNS0zLjY2IDIuMTUgMCAzLjQ5IDEuNDYgMy40OSAzLjY2IDAgMi4xOS0xLjM0IDMuNjYtMy41IDMuNjZ6bTAtMS41MmMuOTggMCAxLjQ5LS45MSAxLjQ5LTIuMTUgMC0xLjI0LS41MS0yLjE1LTEuNDktMi4xNS0uOTkgMC0xLjUuOTEtMS41IDIuMTUgMCAxLjI0LjUxIDIuMTUgMS41IDIuMTV6bTguNzctMS42NHYtNC4wN2gxLjk3VjI0aC0xLjg5di0xLjI5aC0uMDdjLS4zMi44My0xLjA5IDEuMzgtMi4xNSAxLjM4LTEuNDMgMC0yLjQtMS0yLjQtMi42N3YtNC41MWgxLjk2djQuMTZjMCAuODQuNDkgMS4zNiAxLjIzIDEuMzYuNyAwIDEuMzYtLjUgMS4zNS0xLjQ1em01LjYgMy4xNGMtMS42IDAtMi44Ny0xLjI4LTIuODctMy42NiAwLTIuNDMgMS4zMi0zLjY0IDIuODctMy42NCAxLjE5IDAgMS43Ni43IDIuMDIgMS4yOGguMDZ2LTMuNTVoMS45NlYyNGgtMS45NHYtMS4xNGgtLjA4YTIuMSAyLjEgMCAwMS0yLjAxIDEuMjZ6bS42My0xLjU3Yy45NSAwIDEuNS0uODMgMS41LTIuMSAwLTEuMjYtLjU0LTIuMDctMS41LTIuMDctLjk3IDAtMS40OS44NS0xLjQ5IDIuMDcgMCAxLjI0LjUzIDIuMSAxLjUgMi4xem04LjMtNS42NHYxLjQ4aC0xLjQyVjI0aC0xLjk2di01LjYxaC0xVjE2LjloMXYtLjUxYzAtMS41NSAxLTIuMyAyLjMyLTIuMy42MSAwIDEuMTUuMTIgMS40LjJsLS4zNSAxLjQ3Yy0uMTYtLjA1LS40LS4xLS42My0uMS0uNTggMC0uNzguMjgtLjc4Ljc2di40OGgxLjQxem0yLjYyLTIuMzZWMjRoLTEuOTd2LTkuNDVoMS45N3ptMy4wNCA5LjU4Yy0xLjM1IDAtMi4zNS0uNy0yLjM1LTIuMTEgMC0xLjU4IDEuMjYtMi4wNSAyLjY2LTIuMTggMS4yNC0uMTIgMS43Mi0uMTggMS43Mi0uNjR2LS4wM2MwLS41OC0uMzgtLjkyLTEuMDUtLjkyLS43IDAtMS4xMy4zNS0xLjI2LjgybC0xLjgyLS4xNWMuMjctMS4zIDEuMzktMi4xIDMuMDktMi4xIDEuNTggMCAzIC43IDMgMi40VjI0aC0xLjg2di0uOThoLS4wNWMtLjM1LjY2LTEuMDMgMS4xMS0yLjA4IDEuMTF6bS41Ny0xLjM1Yy44NiAwIDEuNDctLjU3IDEuNDctMS4zMXYtLjc2Yy0uMjMuMTYtLjkzLjI2LTEuMzYuMzItLjcuMS0xLjE1LjM3LTEuMTUuOTJzLjQzLjgzIDEuMDQuODN6bTQuNDEgMS4yMnYtNy4xaDEuOXYxLjI1aC4wOGMuMjYtLjg4LjkxLTEuMzQgMS43LTEuMzQuMiAwIC40NS4wMy42Mi4wN3YxLjc0YTMuMyAzLjMgMCAwMC0uODMtLjFjLS44NiAwLTEuNS42LTEuNSAxLjQ3VjI0aC0xLjk3em03LjY3LjE0Yy0yLjE4IDAtMy41Mi0xLjQtMy41Mi0zLjY1IDAtMi4yIDEuMzYtMy42NyAzLjQ0LTMuNjcgMS44OCAwIDMuMzQgMS4xOSAzLjM0IDMuNnYuNTRoLTQuODNjMCAxLjA2LjYyIDEuNzEgMS42IDEuNzEuNjYgMCAxLjE3LS4yOCAxLjM2LS44MmwxLjgyLjEyYy0uMjcgMS4zMS0xLjQ2IDIuMTctMy4yIDIuMTd6bS0xLjU3LTQuNGgyLjk3YzAtLjg1LS42LTEuNDYtMS40NS0xLjQ2YTEuNSAxLjUgMCAwMC0xLjUyIDEuNDZ6IiBmaWxsLW9wYWNpdHk9Ii42IiBmaWxsPSJjdXJyZW50Q29sb3IiLz48cGF0aCBkPSJNNDUuOTQgMTBINjBsMiAydjQ0bC0yIDJINDAuODRsLjk3LTEuNWgxNy41N2wxLjEyLTEuMTJWMTIuNjJsLTEuMTItMS4xMkg0Ny4yNmwtMS40MyA3LjM5SDQ0LjNsMS4zNy03LjQ2LjI4LTEuNDN6TTEyIDU4bC0yLTJWMTJsMi0yaDE5LjlsLTEuMDEgMS41SDEyLjYybC0xLjEyIDEuMTJ2NDIuNzZsMS4xMiAxLjEySDI3LjFsLS4yNCAxLjVIMTJ6bTMtNWg4LjVsLS4zIDEuNUgxNGwtLjUtLjV2LTlsMS41IDN2NXptMzQgMGwxLjUgMS41SDQzbDEtMS41aDV6IiBmaWxsPSIjYjdiYmJkIi8+PHBhdGggZD0iTTMyLjY3IDQwSDE5bC0xLjY2LTMuMTIgMjMtMzQgMy42MiAxLjVMMzkuNDIgMjhINTNsMS42OCAzLjA5LTIyIDM0LTMuNjYtMS40TDMyLjY3IDQwek0xNS41IDE3YTEuNSAxLjUgMCAxMTAtMyAxLjUgMS41IDAgMDEwIDN6bTQgMGExLjUgMS41IDAgMTEwLTMgMS41IDEuNSAwIDAxMCAzem00IDBhMS41IDEuNSAwIDExMC0zIDEuNSAxLjUgMCAwMTAgM3oiIGZpbGw9InVybCgjY2xvdWRmbGFyZS1wYWdlcy1sb2dvLWdyYWRpZW50KSIvPjwvc3ZnPg==;imageBackground=#FFFFFF;imageBorder=#eaeaea;movable=1;resizable=1;rotatable=1;deletable=1;editable=1;connectable=1;" vertex="1" parent="99">
                    <mxGeometry x="48.82" y="60" width="90.84" height="35.5" as="geometry"/>
                </mxCell>
                <mxCell id="135" style="edgeStyle=none;html=1;entryX=0.5;entryY=0;entryDx=0;entryDy=0;strokeColor=#C2C2C2;" edge="1" parent="1" source="126" target="99">
                    <mxGeometry relative="1" as="geometry">
                        <Array as="points">
                            <mxPoint x="247" y="48"/>
                        </Array>
                    </mxGeometry>
                </mxCell>
                <mxCell id="138" style="edgeStyle=none;html=1;entryX=0.5;entryY=0;entryDx=0;entryDy=0;strokeColor=#C2C2C2;" edge="1" parent="1" source="126" target="137">
                    <mxGeometry relative="1" as="geometry"/>
                </mxCell>
                <mxCell id="126" value="" style="dashed=0;outlineConnect=0;html=1;align=center;labelPosition=center;verticalLabelPosition=bottom;verticalAlign=top;shape=mxgraph.weblogos.github;labelBackgroundColor=none;strokeColor=default;strokeWidth=2;fillColor=#FFFFFF;" vertex="1" parent="1">
                    <mxGeometry x="655.85" y="10" width="75" height="75" as="geometry"/>
                </mxCell>
                <mxCell id="140" style="edgeStyle=none;html=1;exitX=0.5;exitY=1;exitDx=0;exitDy=0;entryX=0.5;entryY=0;entryDx=0;entryDy=0;strokeColor=#C2C2C2;" edge="1" parent="1" source="136" target="35">
                    <mxGeometry relative="1" as="geometry"/>
                </mxCell>
                <mxCell id="136" value="" style="shape=image;verticalLabelPosition=bottom;labelBackgroundColor=default;verticalAlign=top;aspect=fixed;imageAspect=0;image=data:image/svg+xml,PHN2ZyB4bWxucz0iaHR0cDovL3d3dy53My5vcmcvMjAwMC9zdmciIHZpZXdCb3g9IjAgMCAzNzQgMTMyIiBpZD0iTE9HT1MiPjxkZWZzPjxzdHlsZT4uY2xzLTF7ZmlsbDojN2I0MmJjO2ZpbGwtcnVsZTpldmVub2RkO308L3N0eWxlPjwvZGVmcz48cGF0aCBkPSJNMTI4Ljg4LDU4LjRIMTE3LjYzVjUxLjY4aDMwLjEyVjU4LjRIMTM2LjVWOTJoLTcuNjJaIi8+PHBhdGggZD0iTTE1NS43MSw4Ni41M2EzMC43NywzMC43NywwLDAsMCw5LTEuMzlsMS4xNSw1LjU2QTMxLjY1LDMxLjY1LDAsMCwxLDE1NSw5Mi41OGMtOS4yNSwwLTEyLjQ2LTQuMy0xMi40Ni0xMS4zOFY3My40YzAtNi4yMywyLjc4LTExLjQ5LDEyLjIyLTExLjQ5czExLjU2LDUuNSwxMS41NiwxMS44NXY2LjNIMTUwdjEuNTFDMTUwLDg1LjE0LDE1MS4yMyw4Ni41MywxNTUuNzEsODYuNTNaTTE1MCw3NC4xM2g5LjM4VjcyLjY3YzAtMi43OC0uODUtNC43MS00LjQ4LTQuNzFzLTQuOSwxLjkzLTQuOSw0LjcxWiIvPjxwYXRoIGQ9Ik0xODYuMDgsNjguNjhhNTYuNjYsNTYuNjYsMCwwLDAtNy44MSw0LjNWOTJoLTcuMzhWNjIuNTFoNi4yM2wuNDksMy4yN2EzMi42NiwzMi42NiwwLDAsMSw3Ljc0LTMuODdaIi8+PHBhdGggZD0iTTIwNC4xLDY4LjY4YTU3LjE0LDU3LjE0LDAsMCwwLTcuOCw0LjNWOTJoLTcuMzhWNjIuNTFoNi4yM2wuNDgsMy4yN2EzMi43NSwzMi43NSwwLDAsMSw3Ljc1LTMuODdaIi8+PHBhdGggZD0iTTIyOC43OCw5MmgtNi4wNWwtLjU0LTJhMTYuMTUsMTYuMTUsMCwwLDEtOC43NywyLjZjLTUuMzksMC03LjY5LTMuNjktNy42OS04Ljc3LDAtNiwyLjYxLTguMjksOC41OS04LjI5aDcuMDhWNzIuNDNjMC0zLjI2LS45LTQuNDEtNS42Mi00LjQxYTQxLjQ3LDQxLjQ3LDAsMCwwLTguMTcuOWwtLjkxLTUuNjJhMzguMzIsMzguMzIsMCwwLDEsMTAuMS0xLjM5YzkuMjYsMCwxMiwzLjI2LDEyLDEwLjY0Wk0yMjEuNCw4MC44NEgyMTZjLTIuNDIsMC0zLjA5LjY3LTMuMDksMi45MSwwLDIsLjY3LDMsMywzYTExLjY4LDExLjY4LDAsMCwwLDUuNTYtMS41MVoiLz48cGF0aCBkPSJNMjUxLjQ3LDU1LjhhMjEuMTYsMjEuMTYsMCwwLDAtNC4yNC0uNDljLTIuOSwwLTMuMzIsMS4yNy0zLjMyLDMuNTF2My42OWg3LjVMMjUxLDY4LjM4aC03LjA3VjkyaC03LjM4VjY4LjM4aC00LjcyVjYyLjUxaDQuNzJWNTguNGMwLTYuMTEsMi44NC05LjE0LDkuMzctOS4xNGEyMy41LDIzLjUsMCwwLDEsNi4zNS44NVoiLz48cGF0aCBkPSJNMjY1Ljg2LDkyLjU4QzI1NS43Niw5Mi41OCwyNTMsODcsMjUzLDgxVjczLjUyYzAtNiwyLjcyLTExLjYxLDEyLjgyLTExLjYxczEyLjgzLDUuNTYsMTIuODMsMTEuNjFWODFDMjc4LjY5LDg3LDI3Niw5Mi41OCwyNjUuODYsOTIuNThabTAtMjQuMzhjLTMuOTMsMC01LjQ0LDEuNzUtNS40NCw1LjA4VjgxLjJjMCwzLjMzLDEuNTEsNS4wOSw1LjQ0LDUuMDlzNS40NS0xLjc2LDUuNDUtNS4wOVY3My4yOEMyNzEuMzEsNzAsMjY5LjgsNjguMiwyNjUuODYsNjguMloiLz48cGF0aCBkPSJNMjk3LjY4LDY4LjY4YTU3LjE0LDU3LjE0LDAsMCwwLTcuOCw0LjNWOTJIMjgyLjVWNjIuNTFoNi4yM2wuNDgsMy4yN0EzMi45NCwzMi45NCwwLDAsMSwyOTcsNjEuOTFaIi8+PHBhdGggZD0iTTMxOCw5MlY3MS40YzAtMS41Ny0uNjctMi4zNi0yLjM2LTIuMzZzLTUsMS4wOS03LjY4LDIuNDlWOTJoLTcuMzlWNjIuNTFoNS42M2wuNzMsMi40OGEyOS41OSwyOS41OSwwLDAsMSwxMS43OS0zLjA4YzIuODUsMCw0LjYsMS4xNSw1LjU3LDMuMTRhMjksMjksMCwwLDEsMTEuODYtMy4xNGM0LjksMCw2LjY1LDMuNDQsNi42NSw4LjcxVjkyaC03LjM4VjcxLjRjMC0xLjU3LS42Ny0yLjM2LTIuMzYtMi4zNmExOS40MiwxOS40MiwwLDAsMC03LjY4LDIuNDlWOTJaIi8+PHBvbHlnb24gcG9pbnRzPSI1MS42MiA0NC40OSA3MC43MiA1NS41MiA3MC43MiA3Ny41OCA1MS42MiA2Ni41NSA1MS42MiA0NC40OSIgY2xhc3M9ImNscy0xIi8+PHBvbHlnb24gcG9pbnRzPSI3Mi44MSA1NS41MiA3Mi44MSA3Ny41OCA5MS45MiA2Ni41NSA5MS45MiA0NC40OSA3Mi44MSA1NS41MiIgY2xhc3M9ImNscy0xIi8+PHBvbHlnb24gcG9pbnRzPSIzMC40MiAzMi4xOCAzMC40MiA1NC4yNCA0OS41MiA2NS4yNyA0OS41MiA0My4yMSAzMC40MiAzMi4xOCIgY2xhc3M9ImNscy0xIi8+PHBvbHlnb24gcG9pbnRzPSI1MS42MiA5MS4wMyA3MC43MiAxMDIuMDYgNzAuNzIgODAuMTQgNzAuNzIgODAgNTEuNjIgNjguOTcgNTEuNjIgOTEuMDMiIGNsYXNzPSJjbHMtMSIvPjxwYXRoIGQ9Ik0xMjUuNDQsNDEuNzJWMzYuMDZoLTUuMTd2NS42NmgtMi42NFYyOC4xM2gyLjY0djUuN2g1LjE3di01LjdoMi42NFY0MS43MlptMTIuMzMsMGgtMi4xbC0uMTktLjY3YTUuNjksNS42OSwwLDAsMS0zLC44N2MtMS44NiwwLTIuNjYtMS4yMy0yLjY2LTIuOTIsMC0yLC45LTIuNzYsMy0yLjc2aDIuNDV2LTFjMC0xLjA5LS4zMS0xLjQ3LTItMS40N2ExNC45NCwxNC45NCwwLDAsMC0yLjgzLjNsLS4zMS0xLjg3YTEzLjksMTMuOSwwLDAsMSwzLjUtLjQ2YzMuMiwwLDQuMTUsMS4wOCw0LjE1LDMuNTRaTTEzNS4yMSwzOGgtMS44OWMtLjgzLDAtMS4wNi4yMy0xLjA2LDFzLjIzLDEsMSwxYTQsNCwwLDAsMCwxLjkzLS41MVptNy45MSwzLjkxYTEyLjU5LDEyLjU5LDAsMCwxLTMuNTItLjU2bC4zNi0xLjg4YTExLjUsMTEuNSwwLDAsMCwzLC40M2MxLjEzLDAsMS4zLS4yNSwxLjMtMXMtLjEzLS45MS0xLjc4LTEuMjljLTIuNS0uNTgtMi43OS0xLjE5LTIuNzktMy4wOHMuOS0yLjgzLDMuODEtMi44M2ExNCwxNCwwLDAsMSwzLjA2LjM0TDE0Ni4zNSwzNGExOC44NCwxOC44NCwwLDAsMC0yLjgxLS4yOGMtMS4xMSwwLTEuMy4yNC0xLjMuODQsMCwuNzkuMDcuODUsMS40NSwxLjE5LDIuODUuNzMsMy4xMiwxLjA5LDMuMTIsMy4xUzE0Ni4yLDQxLjkyLDE0My4xMiw0MS45MlptMTEuNzEtLjJWMzQuODhjMC0uNTMtLjIzLS43OS0uODItLjc5YTcuMTIsNy4xMiwwLDAsMC0yLjY2LjgzdjYuOGgtMi41NlYyNy45NGwyLjU2LjM4djQuMzRhOS4zNCw5LjM0LDAsMCwxLDMuNzMtLjk0YzEuNywwLDIuMywxLjE0LDIuMywyLjg5djcuMTFabTQuNy0xMS4xOXYtMi40aDIuNTZ2Mi40Wm0wLDExLjE5di05LjhoMi41NnY5LjhabTQuNi05LjcyYzAtMi40NiwxLjQ5LTMuODksNS0zLjg5YTE2LjQ3LDE2LjQ3LDAsMCwxLDMuNzkuNDVsLS4yOSwyLjE5YTIxLjQ5LDIxLjQ5LDAsMCwwLTMuNDItLjM0Yy0xLjgyLDAtMi40MS42LTIuNDEsMnY1LjE1YzAsMS40My41OSwyLDIuNDEsMmEyMS40OSwyMS40OSwwLDAsMCwzLjQyLS4zNGwuMjksMi4yYTE2LjQ3LDE2LjQ3LDAsMCwxLTMuNzkuNDRjLTMuNDgsMC01LTEuNDMtNS0zLjg5Wm0xNC40MSw5LjkyYy0zLjUsMC00LjQ0LTEuODUtNC40NC0zLjg3VjM1LjU4YzAtMiwuOTQtMy44Niw0LjQ0LTMuODZTMTgzLDMzLjU3LDE4MywzNS41OHYyLjQ3QzE4Myw0MC4wNywxODIsNDEuOTIsMTc4LjU0LDQxLjkyWm0wLTguMTFjLTEuMzYsMC0xLjg5LjU4LTEuODksMS42OXYyLjY0YzAsMS4xLjUzLDEuNjksMS44OSwxLjY5czEuODktLjU5LDEuODktMS42OVYzNS41QzE4MC40MywzNC4zOSwxNzkuOSwzMy44MSwxNzguNTQsMzMuODFabTExLjY0LjE2YTIwLjUzLDIwLjUzLDAsMCwwLTIuNywxLjQzdjYuMzJoLTIuNTZ2LTkuOGgyLjE2bC4xNywxLjA4YTExLjU0LDExLjU0LDAsMCwxLDIuNjgtMS4yOFptMTAuMjIsNC40OWMwLDIuMTctMSwzLjQ2LTMuMzcsMy40NmExNC44NSwxNC44NSwwLDAsMS0yLjczLS4yOHY0bC0yLjU1LjM4VjMxLjkyaDJsLjI1LjgyYTUuNTQsNS41NCwwLDAsMSwzLjIzLTFjMi4wNSwwLDMuMTQsMS4xNiwzLjE0LDMuNFptLTYuMSwxLjFhMTIsMTIsMCwwLDAsMi4yNy4yN2MuOTIsMCwxLjI4LS40MywxLjI4LTEuMzFWMzUuMDZjMC0uODEtLjMyLTEuMjUtMS4yNi0xLjI1YTMuNzMsMy43MywwLDAsMC0yLjI5Ljg4WiIvPjwvc3ZnPg==;" vertex="1" parent="1">
                    <mxGeometry x="640.94" y="190" width="104.83" height="37" as="geometry"/>
                </mxCell>
                <mxCell id="139" style="edgeStyle=none;html=1;exitX=0.5;exitY=1;exitDx=0;exitDy=0;entryX=0.5;entryY=0;entryDx=0;entryDy=0;strokeColor=#C2C2C2;" edge="1" parent="1" source="137" target="136">
                    <mxGeometry relative="1" as="geometry"/>
                </mxCell>
                <mxCell id="137" value="" style="shape=image;verticalLabelPosition=bottom;labelBackgroundColor=default;verticalAlign=top;aspect=fixed;imageAspect=0;image=data:image/svg+xml,PHN2ZyB4bWxuczp4bGluaz0iaHR0cDovL3d3dy53My5vcmcvMTk5OS94bGluayIgeG1sbnM9Imh0dHA6Ly93d3cudzMub3JnLzIwMDAvc3ZnIiB4bWw6c3BhY2U9InByZXNlcnZlIiBzdHlsZT0iZW5hYmxlLWJhY2tncm91bmQ6bmV3IDAgMCAxMjAwIDMwOTsiIHZpZXdCb3g9IjAgMCAxMjAwIDMwOSIgeT0iMHB4IiB4PSIwcHgiIGlkPSJMYXllcl8xIiB2ZXJzaW9uPSIxLjEiPgo8c3R5bGUgdHlwZT0idGV4dC9jc3MiPgoJLnN0MHtmaWxsOiMxRDYzRUQ7fQo8L3N0eWxlPgo8cGF0aCBkPSJNMzc5LjYsMTExLjdjLTIuMy0xNi43LTExLjUtMzEuMi0yOC4xLTQ0LjNsLTkuNi02LjVsLTYuNCw5LjdjLTguMiwxMi41LTEyLjMsMjkuOS0xMSw0Ni42JiMxMDsmIzk7YzAuNiw1LjgsMi41LDE2LjQsOC40LDI1LjVjLTUuOSwzLjMtMTcuNiw3LjctMzMuMiw3LjRIMS43bC0wLjYsMy41Yy0yLjgsMTYuNy0yLjgsNjksMzAuNywxMDkuMWMyNS41LDMwLjUsNjMuNiw0NiwxMTMuNCw0NiYjMTA7JiM5O2MxMDgsMCwxODcuOC01MC4zLDIyNS4zLTE0MS45YzE0LjcsMC4zLDQ2LjQsMC4xLDYyLjctMzEuNGMwLjQtMC43LDEuNC0yLjYsNC4yLTguNmwxLjYtMy4zbC05LjEtNi4yJiMxMDsmIzk7QzQxOS45LDExMC44LDM5Ny4yLDEwOC4zLDM3OS42LDExMS43TDM3OS42LDExMS43eiBNMjQwLDBoLTQ1LjN2NDEuN0gyNDBWMHogTTI0MCw1MC4xaC00NS4zdjQxLjdIMjQwVjUwLjF6IE0xODYuNCw1MC4xaC00NS4zJiMxMDsmIzk7djQxLjdoNDUuM1Y1MC4xeiBNMTMyLjksNTAuMUg4Ny42djQxLjdoNDUuM1Y1MC4xeiBNNzkuMywxMDAuMkgzNHY0MS43aDQ1LjNWMTAwLjJ6IE0xMzIuOSwxMDAuMkg4Ny42djQxLjdoNDUuM1YxMDAuMnomIzEwOyYjOTsgTTE4Ni40LDEwMC4yaC00NS4zdjQxLjdoNDUuM1YxMDAuMnogTTI0MCwxMDAuMmgtNDUuM3Y0MS43SDI0MFYxMDAuMnogTTI5My42LDEwMC4yaC00NS4zdjQxLjdoNDUuM1YxMDAuMnogTTU2OSw5MC44JiMxMDsmIzk7Yy0zLjMsMC02LjEsMS4xLTguMiwzLjNjLTIuMiwyLjItMy4zLDUuMS0zLjMsOC40VjE1OWMtMTEuMi05LjMtMjQuMS0xMy45LTM4LjktMTMuOWMtMTcuMSwwLTMxLjcsNi4yLTQzLjgsMTguNiYjMTA7JiM5O2MtMTIuMSwxMi40LTE4LjEsMjcuMy0xOC4xLDQ0LjhzNi4xLDMyLjQsMTguMSw0NC44YzEyLjEsMTIuNCwyNi43LDE4LjYsNDMuOCwxOC42czMxLjYtNi4yLDQzLjgtMTguNiYjMTA7JiM5O2MxMi4xLTEyLjIsMTguMS0yNy4yLDE4LjEtNDQuOFYxMDIuNmMwLTMuNC0xLjEtNi4yLTMuNC04LjRDNTc1LDkxLjksNTcyLjMsOTAuOCw1NjksOTAuOHogTTU1NC41LDIyMy45Yy0yLDQuOC00LjgsOS04LjMsMTIuNiYjMTA7JiM5O3MtNy42LDYuNS0xMi4zLDguNnMtOS44LDMuMi0xNS4yLDMuMnMtMTAuNS0xLTE1LjMtMy4yYy00LjctMi4xLTguOC01LTEyLjMtOC42cy02LjItNy44LTguMi0xMi42cy0zLTEwLTMtMTUuNHMxLTEwLjYsMy0xNS40JiMxMDsmIzk7YzItNC44LDQuOC05LDguMi0xMi42YzMuNS0zLjYsNy42LTYuNCwxMi4zLTguNmM0LjctMi4xLDkuOC0zLjIsMTUuMy0zLjJzMTAuNCwxLDE1LjIsMy4yYzQuNywyLjEsOC44LDUsMTIuMyw4LjZzNi4zLDcuOCw4LjMsMTIuNiYjMTA7JiM5O3MzLDkuOSwzLDE1LjNDNTU3LjUsMjEzLjksNTU2LjUsMjE5LDU1NC41LDIyMy45TDU1NC41LDIyMy45eiBNMTA3NS42LDE2My43Yy0xMi4yLTEyLjQtMjYuOS0xOC42LTQzLjgtMTguNiYjMTA7JiM5O2MtMTcsMC0zMS43LDYuMi00My44LDE4LjZjLTEyLjEsMTIuNC0xOC4xLDI3LjMtMTguMSw0NC44czYuMSwzMi40LDE4LjEsNDQuOGMxMi4xLDEyLjQsMjYuNywxOC42LDQzLjgsMTguNiYjMTA7JiM5O2MxNS42LDAsMjktNS4xLDQwLjUtMTUuNGMyLjItMi4zLDMuMy01LjIsMy4zLTguNXMtMS4xLTYuMi0zLjMtOC40Yy0yLjItMi4yLTQuOS0zLjMtOC4yLTMuM2MtMi45LDAuMS01LjQsMS03LjYsMyYjMTA7JiM5O2MtMy41LDMtNy4yLDUuMy0xMS4zLDYuOGMtNC4xLDEuNS04LjUsMi4zLTEzLjQsMi4zYy00LjMsMC04LjQtMC43LTEyLjMtMmMtMy45LTEuNC03LjYtMy4zLTEwLjgtNS43Yy0zLjMtMi41LTYuMS01LjQtOC42LTguOCYjMTA7JiM5O2MtMi40LTMuNC00LjMtNy4yLTUuNS0xMS40aDg3LjZjMy4yLDAsNi0xLjEsOC4yLTMuM2MyLjMtMi4yLDMuNC01LjEsMy40LTguNGMwLTguOC0xLjUtMTYuOS00LjUtMjQuNCYjMTA7JiM5O0MxMDg2LjIsMTc2LjcsMTA4MS43LDE2OS45LDEwNzUuNiwxNjMuN0wxMDc1LjYsMTYzLjd6IE05OTQuNCwxOTYuOGMxLjItNC4xLDMtNy45LDUuNC0xMS40YzIuNC0zLjQsNS4zLTYuNCw4LjYtOC44JiMxMDsmIzk7YzMuMy0yLjUsNy00LjMsMTEtNS43czguMS0yLDEyLjMtMmM0LjIsMCw4LjMsMC43LDEyLjIsMmM0LDEuNCw3LjYsMy4zLDEwLjgsNS43YzMuMywyLjUsNi4yLDUuNCw4LjYsOC44YzIuNSwzLjQsNC4zLDcuMiw1LjYsMTEuNCYjMTA7JiM5O0g5OTQuNEw5OTQuNCwxOTYuOHogTTExOTYuOSwxNTMuMWMtMi4xLTItNC43LTMuNi03LjgtNC44Yy0zLjEtMS4yLTYuNi0yLTEwLjMtMi40Yy0zLjctMC41LTcuMi0wLjctMTAuNS0wLjcmIzEwOyYjOTtjLTcuNCwwLTE0LjMsMS4yLTIwLjgsMy42cy0xMi41LDUuOS0xOCwxMC40VjE1N2MwLTMuMy0xLjEtNi0zLjQtOC4zcy00LjktMy41LTguMS0zLjVzLTYsMS4yLTguMiwzLjVjLTIuMywyLjMtMy40LDUuMS0zLjQsOC4zJiMxMDsmIzk7djEwMy4yYzAsMy4zLDEuMSw2LDMuNCw4LjNzNSwzLjUsOC4yLDMuNXM1LjktMS4yLDguMS0zLjVjMi4zLTIuMywzLjQtNS4xLDMuNC04LjN2LTUxLjZjMC01LjUsMS0xMC43LDMtMTUuNXM0LjgtOSw4LjMtMTIuNiYjMTA7JiM5O3M3LjYtNi40LDEyLjMtOC41YzQuNy0yLjEsOS44LTMuMSwxNS4yLTMuMWM1LjQsMCwxMC41LDEsMTUuMiwyLjhjMS44LDAuOCwzLjUsMS4zLDQuOSwxLjNjMS42LDAsMy4xLTAuMyw0LjUtMC45JiMxMDsmIzk7YzEuNC0wLjYsMi42LTEuNSwzLjctMi41YzEtMS4xLDEuOS0yLjMsMi41LTMuOGMwLjYtMS40LDAuOS0zLDAuOS00LjZDMTIwMCwxNTcuOCwxMTk5LDE1NS4xLDExOTYuOSwxNTMuMUwxMTk2LjksMTUzLjF6JiMxMDsmIzk7IE02OTkuNiwxNjMuN2MtMTIuMi0xMi40LTI2LjktMTguNi00My44LTE4LjZzLTMxLjcsNi4yLTQzLjgsMTguNmMtMTIuMSwxMi40LTE4LjEsMjcuMy0xOC4xLDQ0LjhzNi4xLDMyLjQsMTguMSw0NC44JiMxMDsmIzk7YzEyLjEsMTIuNCwyNi43LDE4LjYsNDMuOCwxOC42czMxLjYtNi4yLDQzLjgtMTguNmMxMi4xLTEyLjIsMTguMS0yNy4yLDE4LjEtNDQuOGMtMC4xLTguOC0xLjYtMTYuOS00LjYtMjQuMyYjMTA7JiM5O0M3MTAuMSwxNzYuOCw3MDUuNiwxNjkuOSw2OTkuNiwxNjMuN3ogTTY5MS42LDIyMy45Yy0yLDQuOC00LjgsOS04LjMsMTIuNnMtNy42LDYuNS0xMi4zLDguNnMtOS44LDMuMi0xNS4yLDMuMnMtMTAuNS0xLTE1LjMtMy4yJiMxMDsmIzk7Yy00LjctMi4xLTguOC01LTEyLjMtOC42cy02LjItNy44LTguMi0xMi42cy0zLTEwLTMtMTUuNHMxLTEwLjYsMy0xNS40YzItNC44LDQuOC05LDguMi0xMi42YzMuNS0zLjYsNy42LTYuNCwxMi4zLTguNiYjMTA7JiM5O2M0LjctMi4xLDkuOC0zLjIsMTUuMy0zLjJzMTAuNCwxLDE1LjIsMy4yYzQuNywyLjEsOC44LDUsMTIuMyw4LjZzNi4zLDcuOCw4LjMsMTIuNnMzLDkuOSwzLDE1LjMmIzEwOyYjOTtDNjk0LjYsMjEzLjksNjkzLjYsMjE5LDY5MS42LDIyMy45TDY5MS42LDIyMy45eiBNOTU3LjIsMTU2LjljMC0xLjYtMC4zLTMuMS0wLjktNC41Yy0wLjYtMS40LTEuNC0yLjctMi41LTMuOCYjMTA7JiM5O2MtMS0xLjEtMi4zLTItMy43LTIuNWMtMS40LTAuNi0yLjktMC45LTQuNS0wLjljLTIuMywwLTQuNCwwLjYtNi4yLDEuOGwtNjYuMiw0NHYtODguM2MwLTMuMy0xLjEtNi4xLTMuNC04LjRzLTQuOS0zLjUtOC4xLTMuNSYjMTA7JiM5O3MtNiwxLjItOC4yLDMuNWMtMi4zLDIuMy0zLjQsNS4xLTMuNCw4LjRWMjYwYzAsMy4zLDEuMSw2LjEsMy40LDguNGMyLjMsMi4zLDUsMy41LDguMiwzLjVzNS45LTEuMiw4LjEtMy41JiMxMDsmIzk7YzIuMy0yLjMsMy40LTUuMSwzLjQtOC40di00MC45bDEzLjUtOS4xbDUxLjEsNTguN2MyLjEsMiw0LjcsMyw3LjcsM2MxLjYsMCwzLjEtMC4zLDQuNS0wLjlzMi42LTEuNSwzLjctMi41YzEtMS4xLDEuOS0yLjMsMi41LTMuOCYjMTA7JiM5O2MwLjYtMS40LDAuOS0zLDAuOS00LjVjMC0zLjEtMS4xLTUuOC0zLjItOC4zTDkwNi41LDE5N2w0Ni40LTMwLjhDOTU1LjgsMTY0LjIsOTU3LjIsMTYxLjEsOTU3LjIsMTU2LjlMOTU3LjIsMTU2Ljl6IE03NjUuMSwxODAuNCYjMTA7JiM5O2MzLjUtMy42LDcuNy02LjQsMTIuNC04LjVzOS44LTMuMSwxNS4yLTMuMWM0LjksMCw5LjQsMC44LDEzLjUsMi41czguMSw0LjEsMTEuOCw3LjNjMi4yLDEuOCw0LjcsMi43LDcuNSwyLjcmIzEwOyYjOTtjMy4zLDAsNi4xLTEuMSw4LjItMy40YzIuMi0yLjMsMy4zLTUuMSwzLjMtOC41cy0xLjMtNi41LTQtOC45Yy0xMS40LTEwLjMtMjQuOC0xNS40LTQwLjQtMTUuNGMtMTcuMSwwLTMxLjcsNi4yLTQzLjgsMTguNiYjMTA7JiM5O2MtMTIuMSwxMi40LTE4LjEsMjcuMy0xOC4xLDQ0LjhzNi4xLDMyLjQsMTguMSw0NC44YzEyLjEsMTIuNCwyNi43LDE4LjYsNDMuOCwxOC42YzE1LjUsMCwyOS01LjEsNDAuNC0xNS40JiMxMDsmIzk7YzIuNC0yLjUsMy43LTUuNCwzLjctOC43cy0xLjEtNi4yLTMuMy04LjRzLTQuOS0zLjMtOC4yLTMuM2MtMi44LDAuMS01LjIsMC45LTcuMywyLjVjLTMuNywzLjMtNy42LDUuNy0xMS43LDcuMyYjMTA7JiM5O2MtNC4xLDEuNi04LjYsMi40LTEzLjUsMi40Yy01LjQsMC0xMC40LTEtMTUuMi0zLjFjLTQuNy0yLjEtOC45LTQuOS0xMi40LTguNWMtMy41LTMuNS02LjMtNy44LTguNC0xMi42Yy0yLTQuOC0zLTEwLTMtMTUuNSYjMTA7JiM5O3MxLTEwLjcsMy0xNS41Qzc1OC44LDE4OC4yLDc2MS42LDE4NC4xLDc2NS4xLDE4MC40TDc2NS4xLDE4MC40eiIgY2xhc3M9InN0MCIvPgo8L3N2Zz4=;" vertex="1" parent="1">
                    <mxGeometry x="646.7900000000001" y="130" width="93.13" height="24" as="geometry"/>
                </mxCell>
            </root>
        </mxGraphModel>
    </diagram>
</mxfile>
